<svg xmlns="http://www.w3.org/2000/svg" width="24" height="24" viewBox="0 0 24 24">
    <g fill="none" fill-rule="evenodd">
        <g fill="#FFF" fill-rule="nonzero">
            <g>
                <path d="M10.125 9.413v2.66H7.078v3.49h3.047V24l-.296-.05C4.238 22.922 0 17.996 0 12.073 0 5.405 5.372 0 12 0s12 5.405 12 12.073C24 18.1 19.613 23.095 13.875 24v-8.437h2.796l.532-3.49h-3.328V9.81c0-.955.464-1.886 1.955-1.886h1.514V4.952s-1.374-.236-2.686-.236c-2.742 0-4.533 1.672-4.533 4.697z" transform="translate(-780.000000, -12.000000) translate(780.000000, 12.000000)"/>
            </g>
        </g>
    </g>
</svg>
