<svg xmlns="http://www.w3.org/2000/svg" width="24" height="24" viewBox="0 0 24 24">
    <g fill="none" fill-rule="evenodd">
        <g fill="#FFF" fill-rule="nonzero">
            <g>
                <path d="M12 0c6.627 0 12 5.373 12 12s-5.373 12-12 12S0 18.627 0 12 5.373 0 12 0zm.185 7.6h-.37c-.798.005-3.946.035-4.816.275-.55.15-.984.596-1.132 1.162-.234.896-.263 2.646-.266 3.07v.187c.003.423.032 2.173.266 3.07.148.565.581 1.01 1.132 1.161.87.24 4.018.27 4.816.274l.173.001H12.185c.798-.005 3.946-.035 4.816-.275.55-.15.984-.596 1.131-1.162.235-.896.264-2.646.267-3.07l.001-.082V12.106c-.004-.423-.033-2.173-.267-3.07-.148-.565-.581-1.01-1.132-1.161-.87-.24-4.018-.27-4.816-.274z" transform="translate(-1042.000000, -12.000000) translate(1042.000000, 12.000000)"/>
                <path d="M11 14L11 10 14 12z" transform="translate(-1042.000000, -12.000000) translate(1042.000000, 12.000000)"/>
            </g>
        </g>
    </g>
</svg>
